REM COMMENT "Generated by IcecastMetadataRecorder https://github.com/eshaz/icecast-metadata-js"
REM BR "16"
REM METAINT "64"
REM DATE "2020-07-29T21:16:11.222Z"
TITLE "isics-all"
FILE "isics-all.mp3" WAVE
  TRACK 1 AUDIO
    TITLE "2020-07-29T21:21:00.158Z TO:P:24605 [14002] Dallas County Law 1, Region 4 Interoperability Tac 42 FROM:2559982"
    INDEX 01 04:48:70
  TRACK 2 AUDIO
    TITLE "2020-07-29T21:21:08.582Z TO:P:24605 [14002] Dallas County Law 1, Region 4 Interoperability Tac 42 FROM:UNKNOWN"
    INDEX 01 04:57:27
  TRACK 3 AUDIO
    TITLE "2020-07-29T21:21:09.950Z TO:177 Polk County - Westcom Fire 2 FROM:1911"
    INDEX 01 04:58:55
  TRACK 4 AUDIO
    TITLE "2020-07-29T21:21:13.478Z TO:24605 Dallas County Law 1 FROM:2559982"
    INDEX 01 05:02:19
  TRACK 5 AUDIO
    TITLE "2020-07-29T21:21:24.638Z TO:177 Polk County - Westcom Fire 2 FROM:UNKNOWN"
    INDEX 01 05:13:31
  TRACK 6 AUDIO
    TITLE "2020-07-29T21:21:26.726Z TO:24631 Dallas County Fire/EMS Operations FROM:UNKNOWN"
    INDEX 01 05:15:38
  TRACK 7 AUDIO
    TITLE "2020-07-29T21:21:35.870Z TO:24631 Dallas County Fire/EMS Operations FROM:UNKNOWN"
    INDEX 01 05:24:49
  TRACK 8 AUDIO
    TITLE "2020-07-29T21:21:37.958Z TO:177 Polk County - Westcom Fire 2 FROM:1911"
    INDEX 01 05:26:55
  TRACK 9 AUDIO
    TITLE "2020-07-29T21:21:44.294Z TO:177 Polk County - Westcom Fire 2 FROM:1007"
    INDEX 01 05:33:05
  TRACK 10 AUDIO
    TITLE "END"
    INDEX 01 05:36:40